<svg width="117" height="86" viewBox="0 0 117 86" fill="none" xmlns="http://www.w3.org/2000/svg">
<path d="M19.0125 16.125H10.2375C7.80609 16.125 5.85 17.9223 5.85 20.1562V37.625H1.4625C0.658125 37.625 0 38.2297 0 38.9688V47.0312C0 47.7703 0.658125 48.375 1.4625 48.375H5.85V65.8438C5.85 68.0777 7.80609 69.875 10.2375 69.875H19.0125C21.4439 69.875 23.4 68.0777 23.4 65.8438V20.1562C23.4 17.9223 21.4439 16.125 19.0125 16.125ZM115.537 37.625H111.15V20.1562C111.15 17.9223 109.194 16.125 106.762 16.125H97.9875C95.5561 16.125 93.6 17.9223 93.6 20.1562V65.8438C93.6 68.0777 95.5561 69.875 97.9875 69.875H106.762C109.194 69.875 111.15 68.0777 111.15 65.8438V48.375H115.537C116.342 48.375 117 47.7703 117 47.0312V38.9688C117 38.2297 116.342 37.625 115.537 37.625ZM83.3625 5.375H74.5875C72.1561 5.375 70.2 7.17227 70.2 9.40625V24.5L58.5 37.625L46.8 24.5V9.40625C46.8 7.17227 44.8439 5.375 42.4125 5.375H33.6375C31.2061 5.375 29.25 7.17227 29.25 9.40625V76.5938C29.25 78.8277 31.2061 80.625 33.6375 80.625H42.4125C44.8439 80.625 46.8 78.8277 46.8 76.5938V48.375L58.5 58L70.2 48.375V76.5938C70.2 78.8277 72.1561 80.625 74.5875 80.625H83.3625C85.7939 80.625 87.75 78.8277 87.75 76.5938V9.40625C87.75 7.17227 85.7939 5.375 83.3625 5.375Z" fill="#FF5F57"/>
</svg>
